<svg xmlns="http://www.w3.org/2000/svg" viewBox="0 0 49 49" width="500" height="500" shape-rendering="crispEdges"><rect width="49" height="49" fill="white"/><g fill="black"><rect x="4" y="4" width="7" height="1"/><rect x="15" y="4" width="2" height="1"/><rect x="19" y="4" width="1" height="1"/><rect x="21" y="4" width="3" height="1"/><rect x="25" y="4" width="3" height="1"/><rect x="29" y="4" width="1" height="1"/><rect x="33" y="4" width="3" height="1"/><rect x="38" y="4" width="7" height="1"/><rect x="4" y="5" width="1" height="1"/><rect x="10" y="5" width="1" height="1"/><rect x="13" y="5" width="4" height="1"/><rect x="18" y="5" width="1" height="1"/><rect x="22" y="5" width="1" height="1"/><rect x="24" y="5" width="4" height="1"/><rect x="29" y="5" width="1" height="1"/><rect x="32" y="5" width="1" height="1"/><rect x="34" y="5" width="2" height="1"/><rect x="38" y="5" width="1" height="1"/><rect x="44" y="5" width="1" height="1"/><rect x="4" y="6" width="1" height="1"/><rect x="6" y="6" width="3" height="1"/><rect x="10" y="6" width="1" height="1"/><rect x="14" y="6" width="1" height="1"/><rect x="18" y="6" width="1" height="1"/><rect x="22" y="6" width="1" height="1"/><rect x="24" y="6" width="1" height="1"/><rect x="26" y="6" width="1" height="1"/><rect x="28" y="6" width="2" height="1"/><rect x="31" y="6" width="2" height="1"/><rect x="34" y="6" width="2" height="1"/><rect x="38" y="6" width="1" height="1"/><rect x="40" y="6" width="3" height="1"/><rect x="44" y="6" width="1" height="1"/><rect x="4" y="7" width="1" height="1"/><rect x="6" y="7" width="3" height="1"/><rect x="10" y="7" width="1" height="1"/><rect x="14" y="7" width="1" height="1"/><rect x="17" y="7" width="1" height="1"/><rect x="20" y="7" width="4" height="1"/><rect x="26" y="7" width="3" height="1"/><rect x="32" y="7" width="1" height="1"/><rect x="34" y="7" width="1" height="1"/><rect x="38" y="7" width="1" height="1"/><rect x="40" y="7" width="3" height="1"/><rect x="44" y="7" width="1" height="1"/><rect x="4" y="8" width="1" height="1"/><rect x="6" y="8" width="3" height="1"/><rect x="10" y="8" width="1" height="1"/><rect x="13" y="8" width="2" height="1"/><rect x="17" y="8" width="1" height="1"/><rect x="20" y="8" width="1" height="1"/><rect x="22" y="8" width="4" height="1"/><rect x="30" y="8" width="3" height="1"/><rect x="35" y="8" width="1" height="1"/><rect x="38" y="8" width="1" height="1"/><rect x="40" y="8" width="3" height="1"/><rect x="44" y="8" width="1" height="1"/><rect x="4" y="9" width="1" height="1"/><rect x="10" y="9" width="1" height="1"/><rect x="12" y="9" width="1" height="1"/><rect x="14" y="9" width="4" height="1"/><rect x="20" y="9" width="1" height="1"/><rect x="24" y="9" width="2" height="1"/><rect x="27" y="9" width="1" height="1"/><rect x="31" y="9" width="1" height="1"/><rect x="35" y="9" width="2" height="1"/><rect x="38" y="9" width="1" height="1"/><rect x="44" y="9" width="1" height="1"/><rect x="4" y="10" width="7" height="1"/><rect x="12" y="10" width="1" height="1"/><rect x="14" y="10" width="1" height="1"/><rect x="16" y="10" width="1" height="1"/><rect x="18" y="10" width="1" height="1"/><rect x="20" y="10" width="1" height="1"/><rect x="22" y="10" width="1" height="1"/><rect x="24" y="10" width="1" height="1"/><rect x="26" y="10" width="1" height="1"/><rect x="28" y="10" width="1" height="1"/><rect x="30" y="10" width="1" height="1"/><rect x="32" y="10" width="1" height="1"/><rect x="34" y="10" width="1" height="1"/><rect x="36" y="10" width="1" height="1"/><rect x="38" y="10" width="7" height="1"/><rect x="14" y="11" width="2" height="1"/><rect x="18" y="11" width="3" height="1"/><rect x="22" y="11" width="1" height="1"/><rect x="25" y="11" width="1" height="1"/><rect x="29" y="11" width="2" height="1"/><rect x="32" y="11" width="1" height="1"/><rect x="4" y="12" width="1" height="1"/><rect x="7" y="12" width="1" height="1"/><rect x="9" y="12" width="2" height="1"/><rect x="12" y="12" width="1" height="1"/><rect x="16" y="12" width="1" height="1"/><rect x="18" y="12" width="1" height="1"/><rect x="21" y="12" width="2" height="1"/><rect x="24" y="12" width="2" height="1"/><rect x="27" y="12" width="2" height="1"/><rect x="30" y="12" width="4" height="1"/><rect x="35" y="12" width="1" height="1"/><rect x="37" y="12" width="1" height="1"/><rect x="39" y="12" width="1" height="1"/><rect x="7" y="13" width="3" height="1"/><rect x="11" y="13" width="1" height="1"/><rect x="14" y="13" width="4" height="1"/><rect x="22" y="13" width="1" height="1"/><rect x="28" y="13" width="3" height="1"/><rect x="35" y="13" width="1" height="1"/><rect x="37" y="13" width="1" height="1"/><rect x="39" y="13" width="3" height="1"/><rect x="43" y="13" width="2" height="1"/><rect x="6" y="14" width="3" height="1"/><rect x="10" y="14" width="2" height="1"/><rect x="20" y="14" width="4" height="1"/><rect x="30" y="14" width="2" height="1"/><rect x="34" y="14" width="3" height="1"/><rect x="38" y="14" width="1" height="1"/><rect x="40" y="14" width="4" height="1"/><rect x="4" y="15" width="2" height="1"/><rect x="7" y="15" width="1" height="1"/><rect x="11" y="15" width="3" height="1"/><rect x="16" y="15" width="1" height="1"/><rect x="18" y="15" width="1" height="1"/><rect x="20" y="15" width="2" height="1"/><rect x="24" y="15" width="1" height="1"/><rect x="27" y="15" width="1" height="1"/><rect x="29" y="15" width="3" height="1"/><rect x="35" y="15" width="3" height="1"/><rect x="41" y="15" width="2" height="1"/><rect x="4" y="16" width="3" height="1"/><rect x="8" y="16" width="3" height="1"/><rect x="12" y="16" width="1" height="1"/><rect x="17" y="16" width="1" height="1"/><rect x="19" y="16" width="1" height="1"/><rect x="24" y="16" width="1" height="1"/><rect x="27" y="16" width="3" height="1"/><rect x="31" y="16" width="4" height="1"/><rect x="36" y="16" width="2" height="1"/><rect x="42" y="16" width="1" height="1"/><rect x="44" y="16" width="1" height="1"/><rect x="5" y="17" width="1" height="1"/><rect x="7" y="17" width="3" height="1"/><rect x="11" y="17" width="1" height="1"/><rect x="15" y="17" width="1" height="1"/><rect x="17" y="17" width="3" height="1"/><rect x="25" y="17" width="1" height="1"/><rect x="28" y="17" width="1" height="1"/><rect x="31" y="17" width="4" height="1"/><rect x="36" y="17" width="2" height="1"/><rect x="39" y="17" width="2" height="1"/><rect x="43" y="17" width="1" height="1"/><rect x="4" y="18" width="1" height="1"/><rect x="8" y="18" width="1" height="1"/><rect x="10" y="18" width="1" height="1"/><rect x="13" y="18" width="3" height="1"/><rect x="18" y="18" width="2" height="1"/><rect x="25" y="18" width="1" height="1"/><rect x="27" y="18" width="3" height="1"/><rect x="31" y="18" width="2" height="1"/><rect x="35" y="18" width="1" height="1"/><rect x="38" y="18" width="2" height="1"/><rect x="43" y="18" width="1" height="1"/><rect x="5" y="19" width="1" height="1"/><rect x="11" y="19" width="1" height="1"/><rect x="13" y="19" width="4" height="1"/><rect x="18" y="19" width="1" height="1"/><rect x="20" y="19" width="2" height="1"/><rect x="26" y="19" width="2" height="1"/><rect x="29" y="19" width="1" height="1"/><rect x="33" y="19" width="1" height="1"/><rect x="35" y="19" width="1" height="1"/><rect x="38" y="19" width="2" height="1"/><rect x="43" y="19" width="2" height="1"/><rect x="6" y="20" width="1" height="1"/><rect x="10" y="20" width="1" height="1"/><rect x="12" y="20" width="1" height="1"/><rect x="17" y="20" width="2" height="1"/><rect x="20" y="20" width="1" height="1"/><rect x="22" y="20" width="2" height="1"/><rect x="25" y="20" width="1" height="1"/><rect x="28" y="20" width="2" height="1"/><rect x="31" y="20" width="1" height="1"/><rect x="35" y="20" width="2" height="1"/><rect x="40" y="20" width="3" height="1"/><rect x="4" y="21" width="1" height="1"/><rect x="6" y="21" width="3" height="1"/><rect x="11" y="21" width="1" height="1"/><rect x="13" y="21" width="5" height="1"/><rect x="20" y="21" width="1" height="1"/><rect x="22" y="21" width="1" height="1"/><rect x="26" y="21" width="1" height="1"/><rect x="30" y="21" width="3" height="1"/><rect x="35" y="21" width="1" height="1"/><rect x="37" y="21" width="1" height="1"/><rect x="39" y="21" width="1" height="1"/><rect x="42" y="21" width="1" height="1"/><rect x="44" y="21" width="1" height="1"/><rect x="5" y="22" width="1" height="1"/><rect x="7" y="22" width="1" height="1"/><rect x="10" y="22" width="1" height="1"/><rect x="13" y="22" width="1" height="1"/><rect x="16" y="22" width="2" height="1"/><rect x="22" y="22" width="2" height="1"/><rect x="26" y="22" width="1" height="1"/><rect x="28" y="22" width="1" height="1"/><rect x="31" y="22" width="8" height="1"/><rect x="40" y="22" width="1" height="1"/><rect x="42" y="22" width="1" height="1"/><rect x="6" y="23" width="2" height="1"/><rect x="9" y="23" width="1" height="1"/><rect x="12" y="23" width="1" height="1"/><rect x="16" y="23" width="2" height="1"/><rect x="19" y="23" width="4" height="1"/><rect x="24" y="23" width="5" height="1"/><rect x="32" y="23" width="1" height="1"/><rect x="35" y="23" width="1" height="1"/><rect x="38" y="23" width="2" height="1"/><rect x="41" y="23" width="2" height="1"/><rect x="44" y="23" width="1" height="1"/><rect x="4" y="24" width="1" height="1"/><rect x="10" y="24" width="1" height="1"/><rect x="15" y="24" width="2" height="1"/><rect x="18" y="24" width="2" height="1"/><rect x="21" y="24" width="3" height="1"/><rect x="25" y="24" width="1" height="1"/><rect x="29" y="24" width="2" height="1"/><rect x="32" y="24" width="4" height="1"/><rect x="37" y="24" width="1" height="1"/><rect x="39" y="24" width="1" height="1"/><rect x="44" y="24" width="1" height="1"/><rect x="4" y="25" width="3" height="1"/><rect x="12" y="25" width="1" height="1"/><rect x="16" y="25" width="1" height="1"/><rect x="19" y="25" width="1" height="1"/><rect x="21" y="25" width="5" height="1"/><rect x="27" y="25" width="2" height="1"/><rect x="32" y="25" width="2" height="1"/><rect x="35" y="25" width="1" height="1"/><rect x="38" y="25" width="1" height="1"/><rect x="41" y="25" width="3" height="1"/><rect x="7" y="26" width="1" height="1"/><rect x="9" y="26" width="2" height="1"/><rect x="16" y="26" width="2" height="1"/><rect x="20" y="26" width="1" height="1"/><rect x="23" y="26" width="3" height="1"/><rect x="27" y="26" width="2" height="1"/><rect x="30" y="26" width="1" height="1"/><rect x="36" y="26" width="3" height="1"/><rect x="40" y="26" width="3" height="1"/><rect x="4" y="27" width="6" height="1"/><rect x="11" y="27" width="2" height="1"/><rect x="15" y="27" width="1" height="1"/><rect x="18" y="27" width="1" height="1"/><rect x="22" y="27" width="1" height="1"/><rect x="24" y="27" width="2" height="1"/><rect x="28" y="27" width="2" height="1"/><rect x="31" y="27" width="2" height="1"/><rect x="34" y="27" width="2" height="1"/><rect x="37" y="27" width="2" height="1"/><rect x="41" y="27" width="4" height="1"/><rect x="4" y="28" width="1" height="1"/><rect x="7" y="28" width="2" height="1"/><rect x="10" y="28" width="1" height="1"/><rect x="12" y="28" width="2" height="1"/><rect x="15" y="28" width="1" height="1"/><rect x="18" y="28" width="1" height="1"/><rect x="22" y="28" width="3" height="1"/><rect x="26" y="28" width="2" height="1"/><rect x="32" y="28" width="1" height="1"/><rect x="34" y="28" width="1" height="1"/><rect x="36" y="28" width="2" height="1"/><rect x="40" y="28" width="2" height="1"/><rect x="43" y="28" width="1" height="1"/><rect x="6" y="29" width="1" height="1"/><rect x="9" y="29" width="1" height="1"/><rect x="13" y="29" width="7" height="1"/><rect x="23" y="29" width="3" height="1"/><rect x="28" y="29" width="1" height="1"/><rect x="30" y="29" width="1" height="1"/><rect x="32" y="29" width="1" height="1"/><rect x="38" y="29" width="1" height="1"/><rect x="5" y="30" width="1" height="1"/><rect x="7" y="30" width="1" height="1"/><rect x="10" y="30" width="1" height="1"/><rect x="13" y="30" width="2" height="1"/><rect x="16" y="30" width="3" height="1"/><rect x="20" y="30" width="3" height="1"/><rect x="24" y="30" width="4" height="1"/><rect x="30" y="30" width="1" height="1"/><rect x="39" y="30" width="1" height="1"/><rect x="5" y="31" width="2" height="1"/><rect x="15" y="31" width="2" height="1"/><rect x="18" y="31" width="3" height="1"/><rect x="23" y="31" width="1" height="1"/><rect x="28" y="31" width="2" height="1"/><rect x="32" y="31" width="1" height="1"/><rect x="37" y="31" width="1" height="1"/><rect x="40" y="31" width="2" height="1"/><rect x="4" y="32" width="1" height="1"/><rect x="8" y="32" width="1" height="1"/><rect x="10" y="32" width="4" height="1"/><rect x="15" y="32" width="1" height="1"/><rect x="17" y="32" width="1" height="1"/><rect x="21" y="32" width="1" height="1"/><rect x="23" y="32" width="6" height="1"/><rect x="32" y="32" width="1" height="1"/><rect x="34" y="32" width="1" height="1"/><rect x="36" y="32" width="1" height="1"/><rect x="40" y="32" width="4" height="1"/><rect x="5" y="33" width="1" height="1"/><rect x="14" y="33" width="1" height="1"/><rect x="17" y="33" width="3" height="1"/><rect x="21" y="33" width="1" height="1"/><rect x="25" y="33" width="1" height="1"/><rect x="27" y="33" width="5" height="1"/><rect x="37" y="33" width="2" height="1"/><rect x="41" y="33" width="3" height="1"/><rect x="4" y="34" width="1" height="1"/><rect x="10" y="34" width="2" height="1"/><rect x="13" y="34" width="4" height="1"/><rect x="19" y="34" width="1" height="1"/><rect x="21" y="34" width="1" height="1"/><rect x="24" y="34" width="1" height="1"/><rect x="28" y="34" width="1" height="1"/><rect x="30" y="34" width="3" height="1"/><rect x="34" y="34" width="3" height="1"/><rect x="38" y="34" width="1" height="1"/><rect x="40" y="34" width="2" height="1"/><rect x="43" y="34" width="1" height="1"/><rect x="9" y="35" width="1" height="1"/><rect x="11" y="35" width="1" height="1"/><rect x="14" y="35" width="1" height="1"/><rect x="16" y="35" width="1" height="1"/><rect x="18" y="35" width="1" height="1"/><rect x="20" y="35" width="3" height="1"/><rect x="25" y="35" width="2" height="1"/><rect x="28" y="35" width="1" height="1"/><rect x="30" y="35" width="1" height="1"/><rect x="32" y="35" width="1" height="1"/><rect x="37" y="35" width="3" height="1"/><rect x="43" y="35" width="1" height="1"/><rect x="4" y="36" width="1" height="1"/><rect x="6" y="36" width="1" height="1"/><rect x="8" y="36" width="1" height="1"/><rect x="10" y="36" width="1" height="1"/><rect x="14" y="36" width="1" height="1"/><rect x="16" y="36" width="1" height="1"/><rect x="19" y="36" width="5" height="1"/><rect x="27" y="36" width="1" height="1"/><rect x="29" y="36" width="3" height="1"/><rect x="34" y="36" width="1" height="1"/><rect x="36" y="36" width="5" height="1"/><rect x="42" y="36" width="1" height="1"/><rect x="12" y="37" width="1" height="1"/><rect x="14" y="37" width="1" height="1"/><rect x="16" y="37" width="1" height="1"/><rect x="19" y="37" width="1" height="1"/><rect x="23" y="37" width="1" height="1"/><rect x="25" y="37" width="3" height="1"/><rect x="30" y="37" width="4" height="1"/><rect x="36" y="37" width="1" height="1"/><rect x="40" y="37" width="5" height="1"/><rect x="4" y="38" width="7" height="1"/><rect x="15" y="38" width="1" height="1"/><rect x="17" y="38" width="1" height="1"/><rect x="21" y="38" width="1" height="1"/><rect x="24" y="38" width="3" height="1"/><rect x="28" y="38" width="2" height="1"/><rect x="31" y="38" width="1" height="1"/><rect x="33" y="38" width="4" height="1"/><rect x="38" y="38" width="1" height="1"/><rect x="40" y="38" width="3" height="1"/><rect x="4" y="39" width="1" height="1"/><rect x="10" y="39" width="1" height="1"/><rect x="12" y="39" width="4" height="1"/><rect x="17" y="39" width="2" height="1"/><rect x="21" y="39" width="1" height="1"/><rect x="23" y="39" width="1" height="1"/><rect x="25" y="39" width="1" height="1"/><rect x="27" y="39" width="1" height="1"/><rect x="29" y="39" width="4" height="1"/><rect x="36" y="39" width="1" height="1"/><rect x="40" y="39" width="1" height="1"/><rect x="43" y="39" width="2" height="1"/><rect x="4" y="40" width="1" height="1"/><rect x="6" y="40" width="3" height="1"/><rect x="10" y="40" width="1" height="1"/><rect x="13" y="40" width="2" height="1"/><rect x="16" y="40" width="3" height="1"/><rect x="20" y="40" width="1" height="1"/><rect x="23" y="40" width="3" height="1"/><rect x="28" y="40" width="2" height="1"/><rect x="31" y="40" width="3" height="1"/><rect x="35" y="40" width="8" height="1"/><rect x="4" y="41" width="1" height="1"/><rect x="6" y="41" width="3" height="1"/><rect x="10" y="41" width="1" height="1"/><rect x="12" y="41" width="10" height="1"/><rect x="24" y="41" width="4" height="1"/><rect x="32" y="41" width="2" height="1"/><rect x="36" y="41" width="2" height="1"/><rect x="39" y="41" width="1" height="1"/><rect x="42" y="41" width="3" height="1"/><rect x="4" y="42" width="1" height="1"/><rect x="6" y="42" width="3" height="1"/><rect x="10" y="42" width="1" height="1"/><rect x="14" y="42" width="1" height="1"/><rect x="17" y="42" width="1" height="1"/><rect x="19" y="42" width="1" height="1"/><rect x="21" y="42" width="1" height="1"/><rect x="23" y="42" width="1" height="1"/><rect x="26" y="42" width="1" height="1"/><rect x="28" y="42" width="1" height="1"/><rect x="31" y="42" width="3" height="1"/><rect x="35" y="42" width="2" height="1"/><rect x="38" y="42" width="3" height="1"/><rect x="44" y="42" width="1" height="1"/><rect x="4" y="43" width="1" height="1"/><rect x="10" y="43" width="1" height="1"/><rect x="14" y="43" width="2" height="1"/><rect x="19" y="43" width="2" height="1"/><rect x="23" y="43" width="1" height="1"/><rect x="25" y="43" width="2" height="1"/><rect x="29" y="43" width="6" height="1"/><rect x="38" y="43" width="2" height="1"/><rect x="41" y="43" width="4" height="1"/><rect x="4" y="44" width="7" height="1"/><rect x="12" y="44" width="1" height="1"/><rect x="14" y="44" width="1" height="1"/><rect x="16" y="44" width="1" height="1"/><rect x="21" y="44" width="4" height="1"/><rect x="27" y="44" width="1" height="1"/><rect x="30" y="44" width="1" height="1"/><rect x="32" y="44" width="2" height="1"/><rect x="38" y="44" width="5" height="1"/></g></svg>